<svg version="1.1" xmlns="http://www.w3.org/2000/svg" xmlns:xlink="http://www.w3.org/1999/xlink" width="512.000000pt" height="512.000000pt" viewBox="0,0,256,256"><g fill="#06c895" fill-rule="nonzero" stroke="none" stroke-width="1" stroke-linecap="butt" stroke-linejoin="miter" stroke-miterlimit="10" stroke-dasharray="" stroke-dashoffset="0" font-family="none" font-weight="none" font-size="none" text-anchor="none" style="mix-blend-mode: normal"><g transform="translate(-0.00305,0.00755) scale(0.5,0.5)"><g transform="translate(0,512) scale(0.1,-0.1)"><path d="M2345,4629c-393,-41 -793,-208 -1101,-460c-535,-437 -822,-1127 -754,-1810c73,-719 510,-1349 1155,-1665c493,-241 1045,-279 1565,-108c781,257 1337,951 1420,1773c78,778 -306,1554 -973,1968c-387,239 -862,349 -1312,302zM2745,4310c526,-59 989,-340 1283,-781c184,-275 292,-633 292,-969c0,-845 -612,-1579 -1442,-1730c-581,-106 -1173,85 -1583,511c-139,145 -220,259 -309,436c-267,530 -242,1179 65,1688c241,399 645,696 1094,804c192,47 414,62 600,41z"></path><path d="M2495,3666c-41,-18 -83,-69 -90,-109c-3,-18 -5,-298 -3,-624c3,-580 3,-592 24,-619c39,-53 71,-69 134,-69c63,0 95,16 134,69c21,27 21,37 21,646c0,609 0,619 -21,646c-11,15 -32,37 -46,47c-33,25 -113,32 -153,13z"></path><path d="M2480,1907c-49,-16 -133,-102 -148,-153c-28,-94 -8,-169 63,-239c102,-103 243,-101 338,5c90,100 90,220 0,320c-65,72 -158,97 -253,67z"></path></g></g></g></svg>