<?xml version="1.0" standalone="no"?>
<!DOCTYPE svg PUBLIC "-//W3C//DTD SVG 20010904//EN"
 "http://www.w3.org/TR/2001/REC-SVG-20010904/DTD/svg10.dtd">
<svg version="1.0" xmlns="http://www.w3.org/2000/svg"
 width="512.000000pt" height="512.000000pt" viewBox="0 0 512.000000 512.000000"
 preserveAspectRatio="xMidYMid meet">

<g transform="translate(0.000000,512.000000) scale(0.100000,-0.100000)"
fill="#000000" stroke="none">
<path d="M2560 4800 l0 -320 -960 0 -960 0 0 -425 0 -425 215 0 215 0 0 210 0
210 745 0 745 0 0 -1490 0 -1490 -745 0 -745 0 0 210 0 210 -215 0 -215 0 0
-425 0 -425 960 0 960 0 0 -320 0 -320 243 0 242 0 930 469 930 469 0 1622 0
1622 -930 469 -930 469 -242 0 -243 0 0 -320z m1490 -2240 l0 -210 -320 0
-320 0 0 210 0 210 320 0 320 0 0 -210z"/>
<path d="M1490 2980 l0 -210 -640 0 -640 0 0 -210 0 -210 640 0 640 0 0 -210
c0 -115 3 -210 8 -210 4 0 149 142 322 315 l315 315 -315 315 c-173 173 -318
315 -322 315 -5 0 -8 -94 -8 -210z"/>
</g>
</svg>
