<svg version="1.1" xmlns="http://www.w3.org/2000/svg" xmlns:xlink="http://www.w3.org/1999/xlink" width="512.000000pt" height="512.000000pt" viewBox="0,0,256,256"><g fill="#06c895" fill-rule="nonzero" stroke="none" stroke-width="1" stroke-linecap="butt" stroke-linejoin="miter" stroke-miterlimit="10" stroke-dasharray="" stroke-dashoffset="0" font-family="none" font-weight="none" font-size="none" text-anchor="none" style="mix-blend-mode: normal"><g transform="translate(0.02177,-0.03095) scale(0.5,0.5)"><g transform="translate(0,512) scale(0.1,-0.1)"><path d="M4260,4470c-14,-6 -147,-133 -297,-282l-271,-271l-129,50c-208,83 -406,135 -638,170c-184,27 -571,24 -764,-6c-509,-78 -959,-281 -1385,-624c-135,-108 -391,-366 -500,-502c-118,-149 -264,-368 -272,-410c-11,-60 4,-100 86,-223c240,-363 584,-709 930,-937c58,-38 107,-70 109,-72c3,-2 -104,-113 -236,-246c-207,-207 -242,-247 -248,-280c-11,-60 3,-107 44,-148c41,-41 88,-55 148,-44c34,6 227,196 1831,1798c1317,1317 1795,1801 1803,1826c22,67 -2,139 -63,184c-31,23 -111,32 -148,17zM2900,3815c172,-26 363,-76 514,-135l30,-11l-164,-164l-164,-164l-27,19c-52,38 -215,110 -294,132c-106,28 -344,31 -449,5c-183,-46 -328,-128 -462,-261c-133,-134 -215,-280 -261,-462c-27,-108 -24,-334 5,-444c23,-83 89,-234 131,-295l20,-31l-203,-203l-203,-203l-95,59c-332,209 -669,527 -878,829l-51,74l50,73c177,256 485,564 746,748c352,248 768,405 1181,448c124,13 448,5 574,-14zM2702,3181c62,-16 178,-64 178,-74c0,-1 -195,-197 -434,-436l-434,-434l-27,52c-36,73 -65,191 -65,270c1,409 394,721 782,622z"></path><path d="M4137,3462c-59,-59 -107,-112 -106,-117c0,-6 39,-40 87,-77c205,-157 475,-445 621,-660l32,-48l-41,-60c-172,-254 -471,-557 -735,-746c-452,-324 -980,-489 -1505,-470c-164,5 -215,11 -383,42l-89,17l-129,-129c-93,-93 -125,-130 -115,-136c28,-16 265,-69 401,-90c187,-29 568,-31 750,-5c645,95 1183,373 1675,866c176,177 291,316 420,509c129,192 129,209 12,388c-112,170 -265,357 -427,520c-137,138 -328,304 -349,304c-6,0 -60,-48 -119,-108z"></path><path d="M3336,2661l-138,-138l-13,-79c-16,-92 -73,-214 -134,-287c-94,-113 -238,-198 -375,-222l-79,-13l-141,-141c-77,-77 -137,-143 -134,-146c12,-12 165,-34 239,-35c253,-1 486,98 674,285c193,193 278,396 279,665c1,125 -16,250 -32,250c-4,0 -69,-62 -146,-139z"></path></g></g></g></svg>