<svg version="1.1" xmlns="http://www.w3.org/2000/svg" xmlns:xlink="http://www.w3.org/1999/xlink" width="512.000000pt" height="512.000000pt" viewBox="0,0,256,256"><g fill="#06c895" fill-rule="nonzero" stroke="none" stroke-width="1" stroke-linecap="butt" stroke-linejoin="miter" stroke-miterlimit="10" stroke-dasharray="" stroke-dashoffset="0" font-family="none" font-weight="none" font-size="none" text-anchor="none" style="mix-blend-mode: normal"><g transform="translate(-0.07261,0.04656) scale(0.5,0.5)"><g transform="translate(0,512) scale(0.1,-0.1)"><path d="M2835,5046c-37,-16 -70,-52 -84,-89c-7,-19 -11,-192 -11,-506v-478l-97,-6c-342,-23 -734,-135 -1063,-303c-556,-284 -997,-729 -1274,-1285c-143,-287 -228,-556 -277,-879c-23,-150 -24,-175 -24,-747c0,-582 0,-592 21,-619c69,-93 178,-95 246,-3c12,16 27,77 44,176c88,534 324,999 695,1372c446,449 1010,703 1652,744l77,5v-471c0,-440 1,-475 19,-507c43,-82 141,-105 218,-52c23,15 234,183 469,373c236,190 668,538 959,773c707,570 692,557 706,605c16,54 4,106 -34,146c-18,19 -228,195 -467,391c-239,197 -705,581 -1034,852c-330,272 -615,501 -633,508c-40,17 -69,17 -108,0zM3968,3826c725,-598 762,-630 745,-646c-10,-10 -297,-242 -638,-517c-341,-274 -713,-574 -827,-667l-208,-167v392c0,384 0,392 -22,430c-14,26 -37,46 -66,61c-42,20 -54,21 -211,15c-459,-18 -808,-105 -1196,-297c-495,-244 -914,-638 -1190,-1118c-26,-46 -48,-82 -50,-80c-5,7 17,204 35,308c93,525 338,996 720,1379c199,200 410,353 665,482c342,172 661,254 1088,278c153,8 177,18 209,82c16,31 18,73 18,432v398l83,-68c45,-37 426,-351 845,-697z"></path></g></g></g></svg>