<svg version="1.1" xmlns="http://www.w3.org/2000/svg" xmlns:xlink="http://www.w3.org/1999/xlink" width="512.000000pt" height="512.000000pt" viewBox="0,0,256,256"><g fill="#ffffff" fill-rule="nonzero" stroke="none" stroke-width="1" stroke-linecap="butt" stroke-linejoin="miter" stroke-miterlimit="10" stroke-dasharray="" stroke-dashoffset="0" font-family="none" font-weight="none" font-size="none" text-anchor="none" style="mix-blend-mode: normal"><g transform="translate(0.04004,-0.01843) scale(0.5,0.5)"><g transform="translate(0,512) scale(0.1,-0.1)"><path d="M4120,5102c-30,-10 -71,-27 -90,-36c-51,-26 -2935,-2910 -2954,-2955c-26,-61 -219,-1066 -212,-1105c4,-18 17,-49 29,-67c24,-37 97,-79 136,-79c43,0 1045,200 1082,216c51,22 2929,2903 2958,2961c49,98 62,206 37,299c-28,105 -58,142 -354,436c-258,255 -294,287 -351,312c-85,37 -201,45 -281,18zM4514,4511c224,-225 258,-262 253,-282c-4,-13 -90,-107 -192,-209l-185,-185l-278,278l-277,277l191,190c117,117 198,190 210,190c12,0 116,-97 278,-259zM3870,3865l275,-275l-1098,-1098l-1097,-1097l-342,-67c-188,-37 -343,-66 -345,-65c-1,2 27,156 64,342l66,340l1096,1098c603,603 1098,1097 1101,1097c3,0 129,-124 280,-275z"></path><path d="M761,5075c-334,-73 -601,-307 -708,-620c-55,-161 -53,-101 -53,-1910c0,-1794 -1,-1752 50,-1899c116,-338 415,-586 766,-636c57,-8 559,-10 1779,-8c1567,3 1705,5 1763,21c190,52 348,143 468,269c115,122 189,251 236,414l23,79v1137c0,1132 0,1137 -21,1164c-48,65 -118,91 -193,72c-53,-13 -106,-64 -120,-115c-7,-25 -11,-393 -11,-1103c0,-1169 2,-1127 -61,-1253c-83,-165 -237,-285 -414,-322c-105,-22 -3335,-22 -3439,0c-226,48 -413,236 -461,462c-22,103 -22,3334 0,3437c45,213 188,370 410,452c47,18 112,19 1160,24c1075,5 1111,6 1142,24c112,68 117,220 9,300c-27,21 -33,21 -1144,23c-922,1 -1128,-1 -1181,-12z"></path></g></g></g></svg>